<svg width="20" height="20" viewBox="0 0 20 20" fill="none" xmlns="http://www.w3.org/2000/svg">
<path fill-rule="evenodd" clip-rule="evenodd" d="M10.085 0.75C12.0776 0.75 13.8939 1.21831 15.2207 1.98828C16.5411 2.75459 17.4209 3.85031 17.4209 5.1123V5.12402L17.4111 5.33496V15.2881C17.4111 15.3645 17.4017 15.4371 17.3867 15.5049C17.2191 16.7727 16.1296 17.6733 14.9912 18.2197C13.6839 18.8471 11.9478 19.207 10.085 19.207C8.22216 19.207 6.48596 18.8472 5.17871 18.2197C3.94495 17.6274 2.7589 16.6144 2.75879 15.1709C2.75879 15.1486 2.76116 15.1258 2.7627 15.1025C2.7612 15.0799 2.75879 15.0575 2.75879 15.0352V5.33398L2.75 5.12305V5.1123C2.75 3.85045 3.62913 2.75459 4.94922 1.98828C6.27582 1.21827 8.09239 0.750066 10.085 0.75ZM15.4111 13.1904C15.2738 13.2691 15.1337 13.3437 14.9912 13.4121C13.6839 14.0395 11.9477 14.3994 10.085 14.3994C8.22216 14.3994 6.48596 14.0396 5.17871 13.4121C5.03605 13.3436 4.8959 13.2692 4.75879 13.1904V15.0352C4.75879 15.0599 4.75641 15.0833 4.75488 15.1025C4.75644 15.1223 4.75879 15.1459 4.75879 15.1709L4.77051 15.2715C4.82978 15.5329 5.12469 15.9743 6.04492 16.416C7.02718 16.8875 8.45435 17.207 10.085 17.207C11.7155 17.207 13.1427 16.8874 14.125 16.416C15.0986 15.9487 15.3748 15.4783 15.4072 15.2246L15.4111 15.1582V13.1904ZM15.4111 8.11719C14.0689 8.95683 12.1729 9.47363 10.085 9.47363C7.99707 9.47356 6.10106 8.9568 4.75879 8.11719V10.3633L4.76172 10.4102L4.78516 10.5146C4.8697 10.781 5.18573 11.196 6.04492 11.6084C7.02718 12.0798 8.45435 12.3994 10.085 12.3994C11.7154 12.3994 13.1427 12.0797 14.125 11.6084C15.0983 11.1412 15.3746 10.6707 15.4072 10.417L15.4111 10.3506V8.11719ZM10.085 2.75C8.38158 2.75007 6.92492 3.15452 5.9541 3.71777C5.03413 4.25172 4.79313 4.76056 4.75781 5.03711C4.75795 5.04075 4.75879 5.04466 4.75879 5.04883V5.19043C4.79551 5.46774 5.03708 5.97515 5.95312 6.50684C6.92385 7.07018 8.38119 7.47357 10.085 7.47363C11.789 7.47363 13.247 7.07024 14.2178 6.50684C15.2298 5.91945 15.4208 5.36487 15.4209 5.1123C15.4209 4.85991 15.2292 4.3054 14.2168 3.71777C13.2459 3.15461 11.7883 2.75 10.085 2.75Z" fill="#747474"/>
</svg>
