<svg width="20" height="20" viewBox="0 0 20 20" fill="none" xmlns="http://www.w3.org/2000/svg">
<g clip-path="url(#clip0_1461_4250)">
<path fill-rule="evenodd" clip-rule="evenodd" d="M12.4377 6.0209C12.6675 5.9029 12.9107 5.92078 13.1176 6.00507C13.3203 6.08777 13.499 6.23674 13.636 6.40942C13.8826 6.7205 14.0582 7.19915 13.8904 7.62563L13.8524 7.71009L11.8423 11.6206C11.771 11.7591 11.6613 11.8705 11.5255 11.9405L7.56229 13.9791C7.12278 14.205 6.67529 13.9447 6.41786 13.6539C6.15286 13.3545 5.95982 12.8915 6.08108 12.4609L6.08425 12.4472L6.08953 12.4345L6.13704 12.3142L6.14231 12.3015L6.14759 12.2899L8.15773 8.37943C8.21102 8.27592 8.28573 8.18692 8.37627 8.11972L8.38577 8.11339L8.39633 8.10705L8.4565 8.0701L8.46495 8.06482L8.47445 8.05954L12.4377 6.0209ZM8.46495 11.5013L10.2164 10.5986L9.36655 9.74873L8.46495 11.5013Z" fill="#747474"/>
<path fill-rule="evenodd" clip-rule="evenodd" d="M10 0C15.5229 0 20 4.47716 20 10C20 15.5229 15.5229 20 10 20C4.47716 20 0 15.5229 0 10C0 4.47716 4.47716 0 10 0ZM10 2.16216C5.67128 2.16216 2.16216 5.67128 2.16216 10C2.16216 14.3287 5.67128 17.8378 10 17.8378C14.3287 17.8378 17.8378 14.3287 17.8378 10C17.8378 5.67128 14.3287 2.16216 10 2.16216Z" fill="#747474"/>
</g>
<defs>
<clipPath id="clip0_1461_4250">
<rect width="20" height="20" fill="white"/>
</clipPath>
</defs>
</svg>
