<svg width="21" height="20" viewBox="0 0 21 20" fill="none" xmlns="http://www.w3.org/2000/svg">
<path d="M17.6894 4.70397C17.6894 4.70397 16.7573 2.77539 14.68 2.77539C13.6956 2.77539 12.9565 3.22053 12.4512 3.68891C11.8961 4.20341 11.056 4.46324 10.2992 4.46324C9.54469 4.46324 8.70645 4.19805 8.15518 3.68291C7.6563 3.21674 6.92517 2.77539 5.94498 2.77539C3.86775 2.77539 2.93565 4.70397 2.93565 4.70397C2.93565 4.70397 0.991574 9.07004 0.938311 12.9808C0.885049 16.8379 3.46828 17.7754 4.69331 17.7754C7.28423 17.7754 8.81651 15.4504 9.58413 13.7758C9.79509 13.3156 10.661 13.2998 10.8862 13.7532C11.7189 15.4294 13.3463 17.7754 15.9317 17.7754C17.1301 17.7754 19.74 16.8379 19.6867 12.9808C19.6334 9.07004 17.6894 4.70397 17.6894 4.70397Z" stroke="#747474" stroke-width="1.875"/>
<path d="M15.377 17.75C17.5861 17.75 19.377 15.9591 19.377 13.75C19.377 11.5409 17.5861 9.75 15.377 9.75C13.1678 9.75 11.377 11.5409 11.377 13.75C11.377 15.9591 13.1678 17.75 15.377 17.75Z" stroke="#747474" stroke-width="1.875"/>
<path d="M5.37695 17.75C7.58609 17.75 9.37695 15.9591 9.37695 13.75C9.37695 11.5409 7.58609 9.75 5.37695 9.75C3.16781 9.75 1.37695 11.5409 1.37695 13.75C1.37695 15.9591 3.16781 17.75 5.37695 17.75Z" stroke="#747474" stroke-width="1.875"/>
</svg>
