<svg width="20" height="20" viewBox="0 0 20 20" fill="none" xmlns="http://www.w3.org/2000/svg">
<path d="M10.0049 10.127C7.68066 10.127 5.8252 8.11523 5.8252 5.61523C5.8252 3.18359 7.70996 1.18164 10.0049 1.18164C12.3096 1.18164 14.1846 3.17383 14.1846 5.60547C14.1846 8.11523 12.3291 10.127 10.0049 10.127ZM10.0049 7.98828C11.1084 7.98828 12.0068 7.02148 12.0068 5.60547C12.0068 4.26758 11.0889 3.31055 10.0049 3.31055C8.9209 3.31055 7.99316 4.27734 7.99316 5.61523C7.99316 7.03125 8.91113 7.98828 10.0049 7.98828ZM4.36035 18.8184C2.6123 18.8184 1.74316 18.2129 1.74316 16.9434C1.74316 14.1406 5.18066 11.0254 10.0049 11.0254C14.8193 11.0254 18.2568 14.1406 18.2568 16.9434C18.2568 18.2129 17.3877 18.8184 15.6494 18.8184H4.36035ZM4.40918 16.6895H15.5908C15.7568 16.6895 15.8057 16.6113 15.8057 16.4941C15.8057 15.3516 13.667 13.1543 10.0049 13.1543C6.33301 13.1543 4.19434 15.3516 4.19434 16.4941C4.19434 16.6113 4.25293 16.6895 4.40918 16.6895Z" fill="#747474"/>
</svg>
