<svg width="20" height="20" viewBox="0 0 20 20" fill="none" xmlns="http://www.w3.org/2000/svg">
<path d="M17.5 1H16.25C14.9798 1 16.4148 1 14.125 1H12.875C12.5234 1 12.25 1.27344 12.25 1.625V2.875C12.25 3.22656 11.9766 3.5 11.625 3.5H9C8.64844 3.5 8.375 3.22656 8.375 2.875V1.625C8.375 1.27344 8.10156 1 7.75 1C5.16321 1 5.6061 1 4.375 1H3.125C2.77344 1 2.5 1.27344 2.5 1.625V5.625C2.5 6.64062 3.35938 7.5 4.375 7.5H16.25C17.2656 7.5 18.125 6.64062 18.125 5.625V1.625C18.125 1.27344 17.8516 1 17.5 1ZM16.0938 8.00781C16.0547 7.69531 15.7812 7.46094 15.4688 7.46094H5.15625C4.84375 7.46094 4.57031 7.69531 4.53125 8.00781L3.125 18.0078C3.04688 18.3984 3.35938 18.7109 3.75 18.7109H7.77344C8.125 18.7109 8.4375 18.4375 8.4375 18.0859V15.0781C8.4375 14.0625 9.21875 13.125 10.2344 13.125C11.2891 13.0859 12.1875 13.9453 12.1875 15V18.125C12.1875 18.4766 12.5 18.75 12.8516 18.75H16.875C17.2656 18.75 17.5781 18.3984 17.5 18.0469L16.0938 8.00781Z" stroke="#747474" stroke-width="1.875"/>
</svg>
