<svg width="20" height="20" viewBox="0 0 20 20" fill="none" xmlns="http://www.w3.org/2000/svg">
<path fill-rule="evenodd" clip-rule="evenodd" d="M17.8842 5.38452H2.11501C1.80732 5.38452 1.53809 5.1153 1.53809 4.80762V3.65382C1.53809 3.34614 1.80732 3.07692 2.11501 3.07692H17.8842C18.1919 3.07692 18.4612 3.34614 18.4612 3.65382V4.80762C18.4612 5.1153 18.1919 5.38452 17.8842 5.38452ZM17.8842 11.1148H2.11501C1.80732 11.1148 1.53809 10.8455 1.53809 10.5379V9.38406C1.53809 9.11484 1.80732 8.84562 2.11501 8.84562H17.8842C18.1919 8.84562 18.4612 9.11484 18.4612 9.42252V10.5763C18.4612 10.8455 18.1919 11.1148 17.8842 11.1148ZM17.8842 16.9232H2.11501C1.80732 16.9232 1.53809 16.6539 1.53809 16.3463V15.1925C1.53809 14.8848 1.80732 14.6156 2.11501 14.6156H17.8842C18.1919 14.6156 18.4612 14.8848 18.4612 15.1925V16.3463C18.4612 16.6539 18.1919 16.9232 17.8842 16.9232Z" fill="#747474"/>
</svg>
