<svg width="20" height="20" viewBox="0 0 20 20" fill="none" xmlns="http://www.w3.org/2000/svg">
<path d="M10.0003 0.769226C4.92338 0.769226 0.769531 4.92307 0.769531 10C0.769531 15.0769 4.92338 19.2308 10.0003 19.2308C15.0772 19.2308 19.2311 15.0769 19.2311 10C19.2311 4.92307 15.0772 0.769226 10.0003 0.769226ZM10.0003 16.7692C6.27722 16.7692 3.23107 13.7231 3.23107 10C3.23107 6.27692 6.27722 3.23076 10.0003 3.23076C13.7234 3.23076 16.7695 6.27692 16.7695 10C16.7695 13.7231 13.7234 16.7692 10.0003 16.7692Z" fill="#747474"/>
<path d="M13.5695 6.03076L8.46184 7.87692C8.18492 7.96923 7.96953 8.18461 7.87722 8.46153L6.03107 13.5692C5.93876 13.8154 6.18492 14.0615 6.43107 13.9692L11.5388 12.1231C11.8157 12.0308 12.0311 11.8154 12.1234 11.5385L13.9695 6.43076C14.0618 6.18461 13.8157 5.93846 13.5695 6.03076ZM10.0003 11.2308C9.32338 11.2308 8.76953 10.6769 8.76953 9.99999C8.76953 9.32307 9.32338 8.76923 10.0003 8.76923C10.6772 8.76923 11.2311 9.32307 11.2311 9.99999C11.2311 10.6769 10.6772 11.2308 10.0003 11.2308Z" fill="#747474"/>
</svg>
