<svg width="20" height="20" viewBox="0 0 20 20" fill="none" xmlns="http://www.w3.org/2000/svg">
<path fill-rule="evenodd" clip-rule="evenodd" d="M0.769531 17.5C0.769531 18.3461 1.46184 19.0385 2.30799 19.0385H18.6157C18.9618 19.0385 19.2311 18.7692 19.2311 18.4231V17.3461C19.2311 17 18.9618 16.7308 18.6157 16.7308H3.65415C3.34645 16.7308 3.07722 16.4615 3.07722 16.1538V1.57692C3.07722 1.23076 2.80799 0.961533 2.46184 0.961533H1.38492C1.03876 0.961533 0.769531 1.23076 0.769531 1.57692V17.5ZM19.1156 5.42286C19.1156 4.76901 18.6156 4.26901 17.9618 4.26901C17.6156 4.26901 17.3464 4.42286 17.1156 4.61516L13.8079 7.92286L11.5387 5.76901L11.5002 5.73055L11.4233 5.65362C11.3848 5.65362 11.3848 5.61516 11.3464 5.61516C11.3079 5.5767 11.2694 5.5767 11.231 5.53824C11.1925 5.53824 11.1925 5.49978 11.1541 5.49978C11.1156 5.49978 11.0771 5.46132 11.0002 5.46132C10.9618 5.46132 10.9618 5.46132 10.9233 5.42286C10.8464 5.42286 10.7694 5.38439 10.6925 5.38439C10.6156 5.38439 10.5387 5.38439 10.4618 5.42286C10.4233 5.42286 10.4233 5.42286 10.3848 5.46132C10.3464 5.46132 10.2694 5.49978 10.231 5.49978C10.1925 5.49978 10.1925 5.53824 10.1541 5.53824C10.1156 5.5767 10.0771 5.5767 10.0387 5.61516C10.0002 5.61516 10.0002 5.65362 9.96175 5.69209C9.92329 5.73055 9.88483 5.73055 9.84637 5.76901L5.46175 10.1921C5.23098 10.4229 5.07714 10.6921 5.07714 11.0382C5.07714 11.6921 5.57714 12.1921 6.23098 12.1921C6.50021 12.1921 6.76944 12.0767 6.96175 11.9229L10.731 8.19209L12.9233 10.3459C12.9618 10.3844 13.0002 10.3844 13.0387 10.4229L13.1156 10.4998C13.1541 10.5382 13.1925 10.5382 13.231 10.5767C13.2694 10.5767 13.2694 10.6152 13.3079 10.6152C13.3464 10.6536 13.4233 10.6536 13.4618 10.6536C13.5002 10.6536 13.5002 10.6536 13.5387 10.6921C13.6156 10.6921 13.6925 10.7305 13.7694 10.7305C13.8464 10.7305 13.9233 10.7305 14.0002 10.6921H14.0771C14.1156 10.6921 14.1541 10.6536 14.231 10.6536C14.2694 10.6536 14.2694 10.6152 14.3079 10.6152C14.3464 10.6152 14.3848 10.5767 14.4233 10.5382C14.4618 10.5382 14.4618 10.4998 14.5002 10.4998L14.5387 10.4613L14.5771 10.4229L14.6156 10.3844L18.7694 6.26901C18.9618 6.03824 19.1156 5.76901 19.1156 5.42286V5.42286Z" fill="#747474"/>
</svg>
