<svg width="20" height="20" viewBox="0 0 20 20" fill="none" xmlns="http://www.w3.org/2000/svg">
<path fill-rule="evenodd" clip-rule="evenodd" d="M17.5001 6.53846L16.1924 7.88462C15.9616 8.11539 15.8462 8.38462 15.8462 8.69231V15.3846C15.8462 15.6923 15.577 15.9615 15.2693 15.9615H4.88463C4.57693 15.9615 4.3077 15.6923 4.3077 15.3846V5C4.3077 4.69231 4.57693 4.42308 4.88463 4.42308H11.6154C11.9231 4.42308 12.2308 4.3077 12.4231 4.07693L13.7308 2.76923C13.9616 2.53846 13.8077 2.11539 13.4616 2.11539H3.53847C2.69231 2.11539 2 2.80769 2 3.65385V16.7308C2 17.5769 2.69231 18.2692 3.53847 18.2692H16.6154C17.4616 18.2692 18.1539 17.5769 18.1539 16.7308V6.8077C18.1539 6.46154 17.7308 6.3077 17.5001 6.53846ZM7.26936 11.8076L8.69244 13.2307C8.76937 13.3076 8.84629 13.3076 8.92321 13.2307L16.3848 5.57684C16.4617 5.49992 16.4617 5.423 16.3848 5.34607L15.0002 3.96146C14.9232 3.88453 14.8463 3.88453 14.7694 3.96146L7.26936 11.5768C7.19244 11.6538 7.19244 11.7307 7.26936 11.8076V11.8076ZM15.4232 3.30758C15.3462 3.38451 15.3462 3.46143 15.4232 3.53835L16.8078 4.92297C16.8847 4.99989 16.9616 4.99989 17.0385 4.92297L18.0001 3.96143C18.2693 3.73066 18.2693 3.34604 18.0001 3.07681L17.3078 2.38451C17.0385 2.11528 16.6539 2.11528 16.3847 2.38451C16.3462 2.38451 15.4232 3.30758 15.4232 3.30758V3.30758ZM5.99993 14.1923C5.96147 14.3461 6.11532 14.5 6.26916 14.4615C6.49993 14.3846 6.76917 14.3461 6.99994 14.2692C7.19224 14.2307 7.38455 14.1923 7.57686 14.1153C7.76917 14.0769 7.96148 14.0384 8.11532 13.9615C8.19225 13.923 8.34609 13.7692 8.23071 13.6538L6.76917 12.1923C6.65378 12.0769 6.5384 12.1923 6.49993 12.2692C6.38455 12.423 6.34609 12.6538 6.30763 12.8076C6.26916 13 6.19224 13.1923 6.15378 13.3846C6.11532 13.7307 6.07686 13.9615 5.99993 14.1923V14.1923Z" fill="#747474"/>
</svg>
