<svg width="20" height="20" viewBox="0 0 20 20" fill="none" xmlns="http://www.w3.org/2000/svg">
<path d="M6.76379 10.5332C7.05676 10.2403 7.53172 10.2413 7.82434 10.5332L9.5177 12.2246C9.79205 12.4993 9.80862 12.9341 9.56848 13.2285L9.5177 13.2852L4.67786 18.125C4.14727 18.6556 3.3067 18.6888 2.73743 18.2246L2.62805 18.125L1.92493 17.4229C1.35951 16.8569 1.35916 15.9389 1.92493 15.373L6.76379 10.5332Z" fill="#747474"/>
<path d="M15.8702 10.0098C16.1422 10.0539 16.3718 10.2455 16.4611 10.5127L16.7247 11.3018C16.7995 11.5254 16.9758 11.7008 17.1993 11.7754L17.9874 12.0381C18.2932 12.1405 18.5011 12.4276 18.5011 12.75C18.5011 13.0724 18.2942 13.3595 17.9884 13.4619L17.1984 13.7236L17.1993 13.7246C16.9758 13.7992 16.7995 13.9746 16.7247 14.1982L16.4611 14.9873C16.3591 15.2927 16.0737 15.4996 15.7511 15.5C15.469 15.5 15.214 15.342 15.0861 15.0977L15.0392 14.9873L14.7765 14.1982C14.702 13.975 14.5257 13.7995 14.3019 13.7246L13.5138 13.4619C13.2072 13.3598 13.0011 13.0725 13.0011 12.75C13.0011 12.4275 13.2072 12.1402 13.5138 12.0381L14.3019 11.7754C14.5257 11.7005 14.702 11.525 14.7765 11.3018L15.0392 10.5127L15.0861 10.4023C15.214 10.158 15.469 10 15.7511 10L15.8702 10.0098Z" fill="#747474"/>
<path d="M9.57434 7.72461C10.1404 7.15912 11.0582 7.15875 11.6241 7.72461L12.3263 8.42676C12.8918 8.99266 12.8916 9.9107 12.3263 10.4766L11.2902 11.5127C10.9968 11.806 10.5204 11.8057 10.2277 11.5117L8.54114 9.81445C8.25002 9.52135 8.25084 9.04811 8.54309 8.75586L9.57434 7.72461Z" fill="#747474"/>
<path d="M16.3702 3.00977C16.6422 3.05389 16.8718 3.24554 16.9611 3.5127L17.2247 4.30176C17.2995 4.52549 17.4757 4.70079 17.6993 4.77539L18.4874 5.03809C18.7932 5.14047 19.0011 5.42757 19.0011 5.75C19.0011 6.07243 18.7941 6.35953 18.4884 6.46191L17.6984 6.72363L17.6993 6.72461C17.4757 6.79921 17.2995 6.97451 17.2247 7.19824L16.9611 7.9873C16.8591 8.29271 16.5737 8.49954 16.2511 8.5C15.969 8.5 15.714 8.34201 15.5861 8.09766L15.5392 7.9873L15.2765 7.19824C15.202 6.97499 15.0256 6.79948 14.8019 6.72461L14.0138 6.46191C13.7073 6.35975 13.5011 6.07259 13.5011 5.75C13.5011 5.42741 13.7073 5.14025 14.0138 5.03809L14.8019 4.77539C15.0256 4.70052 15.202 4.52501 15.2765 4.30176L15.5392 3.5127L15.5861 3.40234C15.714 3.15799 15.969 3 16.2511 3L16.3702 3.00977Z" fill="#747474"/>
<path d="M7.87024 1.00977C8.14225 1.05389 8.37185 1.24553 8.46106 1.5127L8.72473 2.30176C8.7995 2.5255 8.97573 2.70079 9.19934 2.77539L9.98743 3.03809C10.2932 3.14047 10.5011 3.42757 10.5011 3.75C10.5011 4.07243 10.2941 4.35953 9.9884 4.46191L9.19836 4.72363L9.19934 4.72461C8.97573 4.79921 8.7995 4.9745 8.72473 5.19824L8.46106 5.9873C8.35908 6.29272 8.07365 6.49953 7.7511 6.5C7.42857 6.5 7.14142 6.29355 7.03918 5.9873L6.77649 5.19824C6.70196 4.97497 6.52568 4.79947 6.30188 4.72461L5.51379 4.46191C5.20733 4.35975 5.0011 4.07261 5.0011 3.75C5.0011 3.4274 5.20733 3.14025 5.51379 3.03809L6.30188 2.77539C6.52568 2.70053 6.70196 2.52503 6.77649 2.30176L7.03918 1.5127C7.14142 1.20645 7.42857 1 7.7511 1L7.87024 1.00977Z" fill="#747474"/>
</svg>
