<svg width="24" height="24" viewBox="0 0 24 24" fill="none" xmlns="http://www.w3.org/2000/svg">
<path fill-rule="evenodd" clip-rule="evenodd" d="M11.9998 0.922852C5.90747 0.922852 0.922852 5.90747 0.922852 11.9998C0.922852 18.0921 5.90747 23.0767 11.9998 23.0767C18.0921 23.0767 23.0767 18.0921 23.0767 11.9998C23.0767 5.90747 18.0921 0.922852 11.9998 0.922852ZM11.9998 20.3075C7.43058 20.3075 3.69212 16.569 3.69212 11.9998C3.69212 7.43054 7.43058 3.69208 11.9998 3.69208C16.569 3.69208 20.3075 7.43054 20.3075 11.9998C20.3075 16.569 16.569 20.3075 11.9998 20.3075ZM13.569 12.0922C13.4305 11.9537 13.3844 11.7691 13.3844 11.5845V7.15373C13.3844 6.78449 13.0613 6.46142 12.6921 6.46142H11.3074C10.9382 6.46142 10.6151 6.78449 10.6151 7.15373V12.7383C10.6151 12.923 10.7074 13.1076 10.7997 13.246L14.2151 16.6614C14.4921 16.9383 14.9074 16.9383 15.1844 16.6614L16.1536 15.6922C16.4305 15.4153 16.4305 14.9999 16.1536 14.723L13.569 12.0922Z" fill="#747474"/>
</svg>
