<svg width="20" height="20" viewBox="0 0 20 20" fill="none" xmlns="http://www.w3.org/2000/svg">
<g clip-path="url(#clip0_1461_4248)">
<path d="M12.5712 8.59885C13.3601 8.59894 13.9996 9.23715 13.9998 10.024V11.1641C13.9997 11.9511 13.3601 12.5892 12.5712 12.5893H11.4284C10.6397 12.5892 9.99991 11.9511 9.99985 11.1641V10.024C9.99999 9.23709 10.6396 8.59907 11.4284 8.59885H12.5712Z" fill="#747474"/>
<path fill-rule="evenodd" clip-rule="evenodd" d="M8.71862 0.392033C9.49261 -0.130603 10.5083 -0.130753 11.2822 0.392033L19.4986 5.94452C20.0209 6.29776 20.1569 7.00778 19.8033 7.52888C19.4646 8.0273 18.7998 8.1723 18.2854 7.87515V15.4395C18.2854 17.9581 16.2387 19.9999 13.7141 20H6.28562C3.7611 19.9999 1.71433 17.9581 1.71426 15.4395V7.87515C1.19991 8.17221 0.535096 8.02731 0.196429 7.52888C-0.157254 7.00778 -0.0202338 6.29775 0.502228 5.94452L8.71862 0.392033ZM3.99994 6.33533V15.4395C4.00001 16.6987 5.02344 17.7197 6.28562 17.7198H13.7141C14.9763 17.7197 15.9997 16.6988 15.9998 15.4395V6.33421L10.001 2.28035L3.99994 6.33533Z" fill="#747474"/>
</g>
<defs>
<clipPath id="clip0_1461_4248">
<rect width="20" height="20" fill="white"/>
</clipPath>
</defs>
</svg>
