<svg width="16" height="16" viewBox="0 0 16 16" fill="none" xmlns="http://www.w3.org/2000/svg">
<path d="M11.9899 5.90001C11.8228 5.90001 11.6626 5.96639 11.5444 6.08454C11.4263 6.20268 11.3599 6.36293 11.3599 6.53001V7.58001C11.3599 9.42801 9.84788 10.94 7.99988 10.94C6.15188 10.94 4.63988 9.42801 4.63988 7.58001V6.53001C4.63988 6.17301 4.36688 5.90001 4.00988 5.90001C3.65288 5.90001 3.37988 6.17301 3.37988 6.53001V7.58001C3.3796 8.69638 3.78356 9.77508 4.51705 10.6167C5.25054 11.4583 6.26395 12.0058 7.36988 12.158V13.04H6.31988C5.96288 13.04 5.68988 13.313 5.68988 13.67C5.68988 14.027 5.96288 14.3 6.31988 14.3H9.67988C10.0369 14.3 10.3099 14.027 10.3099 13.67C10.3099 13.313 10.0369 13.04 9.67988 13.04H8.62988V12.158C9.73582 12.0058 10.7492 11.4583 11.4827 10.6167C12.2162 9.77508 12.6202 8.69638 12.6199 7.58001V6.53001C12.6199 6.36293 12.5535 6.20268 12.4354 6.08454C12.3172 5.96639 12.157 5.90001 11.9899 5.90001ZM7.99988 9.68001C8.55684 9.68001 9.09098 9.45876 9.48481 9.06494C9.87863 8.67111 10.0999 8.13697 10.0999 7.58001V3.77901C10.0999 3.22763 9.88085 2.69883 9.49096 2.30894C9.10107 1.91905 8.57227 1.70001 8.02088 1.70001H7.97888C7.4275 1.70001 6.8987 1.91905 6.50881 2.30894C6.11892 2.69883 5.89988 3.22763 5.89988 3.77901V7.58001C5.89988 8.13697 6.12113 8.67111 6.51496 9.06494C6.90879 9.45876 7.44293 9.68001 7.99988 9.68001Z" fill="#5C5C5C"/>
</svg>
