<svg width="24" height="24" viewBox="0 0 24 24" fill="none" xmlns="http://www.w3.org/2000/svg">
<path fill-rule="evenodd" clip-rule="evenodd" d="M19.8461 4.15318C15.5075 -0.139323 8.49181 -0.139323 4.15319 4.15318C-0.139279 8.49184 -0.139279 15.5075 4.15319 19.8462C8.49181 24.1849 15.5075 24.1849 19.7999 19.8462C24.1385 15.5075 24.1385 8.49184 19.8461 4.15318ZM19.384 12.9228C19.384 13.1997 19.1994 13.3844 18.9224 13.3844H13.8455C13.6148 13.3844 13.384 13.6151 13.384 13.8459V18.9228C13.384 19.1536 13.1532 19.3844 12.9225 19.3844H11.0763C10.7994 19.3844 10.6148 19.1997 10.6148 18.9228V13.8459C10.6148 13.569 10.4301 13.3844 10.1532 13.3844H5.0763C4.79938 13.3844 4.61476 13.1997 4.61476 12.9228V11.0767C4.61476 10.8459 4.84553 10.6151 5.0763 10.6151H10.1532C10.4301 10.6151 10.6148 10.4305 10.6148 10.1536V5.07666C10.6148 4.8459 10.8455 4.61513 11.0763 4.61513H12.9225C13.1532 4.61513 13.384 4.79974 13.384 5.07666V10.1536C13.384 10.4305 13.5686 10.6151 13.8455 10.6151H18.9224C19.1532 10.6151 19.384 10.8459 19.384 11.0767V12.9228Z" fill="#5C5C5C"/>
</svg>
