<svg width="24" height="24" viewBox="0 0 24 24" fill="none" xmlns="http://www.w3.org/2000/svg">
<path fill-rule="evenodd" clip-rule="evenodd" d="M21.2308 15.2303H21C20.1231 15.2303 19.3846 14.4918 19.3846 13.6148V8.30651C19.3846 4.10605 15.8769 0.736446 11.6308 0.921081C7.66156 1.10572 4.6154 4.52148 4.6154 8.5373V13.6609C4.6154 14.538 3.87694 15.2303 3.00002 15.2303H2.76925C1.75386 15.2303 0.923096 16.1074 0.923096 17.1229V17.8152C0.923096 18.1384 1.24617 18.4615 1.6154 18.4615H22.3846C22.7539 18.4615 23.0769 18.1384 23.0769 17.7691V17.0767C23.0769 16.0612 22.2462 15.2303 21.2308 15.2303ZM14.2614 20.3077H9.73832C9.4614 20.3077 9.23063 20.5846 9.27678 20.8615C9.50755 22.1539 10.6614 23.077 11.9999 23.077C13.3383 23.077 14.4922 22.1077 14.7229 20.8615C14.7691 20.5846 14.5383 20.3077 14.2614 20.3077Z" fill="#5C5C5C"/>
</svg>
