<svg width="16" height="16" viewBox="0 0 16 16" fill="none" xmlns="http://www.w3.org/2000/svg">
<path d="M9.0769 8.80767H13.5192C13.7346 8.80767 13.9231 8.61921 13.9231 8.40383V7.59614C13.9231 7.38075 13.7346 7.19229 13.5192 7.19229H9.0769C8.91537 7.19229 8.80767 7.0846 8.80767 6.92306V2.48075C8.80767 2.26537 8.61921 2.0769 8.40383 2.0769H7.59614C7.38075 2.0769 7.19229 2.26537 7.19229 2.48075V6.92306C7.19229 7.0846 7.0846 7.19229 6.92306 7.19229H2.48075C2.26537 7.19229 2.0769 7.38075 2.0769 7.59614V8.40383C2.0769 8.61921 2.26537 8.80767 2.48075 8.80767H6.92306C7.0846 8.80767 7.19229 8.91537 7.19229 9.0769V13.5192C7.19229 13.7346 7.38075 13.9231 7.59614 13.9231H8.40383C8.61921 13.9231 8.80767 13.7346 8.80767 13.5192V9.0769C8.80767 8.91537 8.91537 8.80767 9.0769 8.80767Z" fill="#5C5C5C"/>
</svg>
