<svg width="24" height="24" viewBox="0 0 24 24" fill="none" xmlns="http://www.w3.org/2000/svg">
<path fill-rule="evenodd" clip-rule="evenodd" d="M13.1078 17.5384H10.8001C10.4309 17.5384 10.1539 17.2615 10.1539 16.8923V16.2C10.1539 14.2615 11.4001 12.5077 13.2462 11.8615C13.8001 11.6769 14.3078 11.3538 14.7232 10.8923C17.0309 8.12307 14.9078 4.79999 12.1385 4.70769C11.1232 4.66153 10.1539 5.03076 9.41547 5.72307C8.81547 6.27692 8.44624 6.96922 8.35393 7.75384C8.30778 8.03076 8.03085 8.26153 7.66162 8.26153H5.35393C4.93855 8.26153 4.61547 7.93845 4.66162 7.52307C4.84624 5.76922 5.63085 4.2 6.87701 2.95384C8.35393 1.56923 10.2462 0.83077 12.277 0.876923C16.1078 1.01538 19.2462 4.15384 19.3847 7.98461C19.5232 11.2154 17.5385 14.1231 14.5385 15.2307C14.1232 15.4154 13.8462 15.7384 13.8462 16.1538V16.8461C13.8462 17.2615 13.477 17.5384 13.1078 17.5384ZM13.8464 22.3846C13.8464 22.7538 13.5233 23.0769 13.1541 23.0769H10.8464C10.4772 23.0769 10.1541 22.7538 10.1541 22.3846V20.0769C10.1541 19.7077 10.4772 19.3846 10.8464 19.3846H13.1541C13.5233 19.3846 13.8464 19.7077 13.8464 20.0769V22.3846Z" fill="#5C5C5C"/>
</svg>
