<svg width="61" height="42" viewBox="0 0 61 42" fill="none" xmlns="http://www.w3.org/2000/svg">
<path fill-rule="evenodd" clip-rule="evenodd" d="M25.524 4.65374C27.5144 2.6759 30.2073 1.39612 33.2514 1.39612C37.2322 1.39612 40.7447 3.60665 42.618 6.86427C44.2572 6.1662 46.0134 5.70083 47.8868 5.70083C55.1459 5.70083 61 11.518 61 18.7313C61 25.9446 55.1459 31.7618 47.8868 31.7618C46.9501 31.7618 46.1305 31.6454 45.3109 31.5291C43.6718 34.4377 40.5106 36.4155 36.881 36.4155C35.3589 36.4155 33.9539 36.0665 32.666 35.4848C31.0269 39.3241 27.1631 42 22.5969 42C17.9136 42 13.8157 39.0914 12.2937 34.903C11.5912 35.0194 10.8887 35.1357 10.1862 35.1357C4.56622 35.1357 0 30.5983 0 25.0139C0 21.2909 1.9904 18.0332 5.03455 16.2881C4.44914 14.892 4.09789 13.2632 4.09789 11.6343C4.09789 5.23546 9.3666 0 15.9232 0C20.0211 0.116343 23.4165 1.8615 25.524 4.65374Z" fill="#00A1E0"/>
</svg>
