<svg width="16" height="16" viewBox="0 0 16 16" fill="none" xmlns="http://www.w3.org/2000/svg">
<path d="M7.51846 13.4283C7.62188 13.4276 7.72082 13.386 7.79369 13.3126C7.86656 13.2391 7.90746 13.1399 7.90746 13.0364L7.92907 8.50318C7.93221 8.40421 7.89906 8.30752 7.83586 8.23133C7.77266 8.15514 7.68378 8.10473 7.586 8.08959H2.96938C2.86952 8.08601 2.77191 8.11973 2.69551 8.18418C2.61912 8.24863 2.56942 8.33921 2.55607 8.4383V9.33034C2.55249 9.43026 2.58619 9.52795 2.65059 9.60439C2.715 9.68083 2.80552 9.73057 2.90455 9.74392H4.3957C4.47028 9.74597 4.54124 9.77653 4.594 9.82932C4.64675 9.88211 4.67729 9.95312 4.67934 10.0278C4.68138 10.0995 4.65739 10.1696 4.6118 10.2251L1.57548 13.2742C1.49481 13.3542 1.44765 13.4619 1.44364 13.5754C1.43962 13.6889 1.47905 13.7997 1.55387 13.8852L2.14276 14.4717C2.22928 14.5429 2.33882 14.58 2.45076 14.576C2.5627 14.5721 2.66932 14.5273 2.75057 14.4501L5.82201 11.3793C5.84725 11.3527 5.87762 11.3316 5.91129 11.3171C5.94496 11.3027 5.98122 11.2952 6.01786 11.2952C6.0545 11.2952 6.09076 11.3027 6.12443 11.3171C6.1581 11.3316 6.18847 11.3527 6.21371 11.3793C6.2413 11.4033 6.26189 11.4343 6.2733 11.4691C6.28471 11.5038 6.28652 11.541 6.27854 11.5767V13.012C6.27549 13.1121 6.30931 13.2098 6.37356 13.2866C6.43781 13.3633 6.52802 13.4138 6.62702 13.4283H7.51846Z" fill="#5C5C5C"/>
<path d="M9.13117 14.1257C10.4122 13.8986 11.5954 13.2911 12.5268 12.3822C13.1511 11.8053 13.6526 11.1082 14.0012 10.3327C14.3498 9.55724 14.5384 8.7193 14.5556 7.86913C14.5728 7.01896 14.4183 6.17407 14.1014 5.38507C13.7845 4.59608 13.3116 3.87924 12.7112 3.2775C12.1108 2.67576 11.3951 2.20151 10.6072 1.88318C9.81917 1.56485 8.97506 1.40899 8.12544 1.42494C7.27581 1.44089 6.43814 1.62831 5.66264 1.97599C4.88713 2.32366 4.18976 2.82443 3.6123 3.44828C2.691 4.36368 2.07812 5.54395 1.85912 6.82452H3.14227C3.33531 5.93931 3.76318 5.12252 4.38087 4.46007C4.99857 3.79762 5.78326 3.31398 6.6524 3.06003C7.52154 2.80609 8.44301 2.79122 9.31988 3.017C10.1968 3.24277 10.9966 3.70084 11.6353 4.34302C12.2754 4.98134 12.7323 5.78012 12.9581 6.65573C13.1838 7.53134 13.1702 8.45159 12.9186 9.32013C12.667 10.1887 12.1868 10.9736 11.528 11.5926C10.8693 12.2117 10.0564 12.6422 9.1744 12.839L9.13117 14.1257ZM9.19601 11.5307C9.78303 11.3575 10.3153 11.0353 10.7412 10.5954C11.4515 9.88495 11.8508 8.9212 11.851 7.91619C11.8513 6.91119 11.4525 5.94724 10.7425 5.23641C10.0325 4.52559 9.06943 4.12611 8.06509 4.12585C7.06075 4.1256 6.09745 4.52459 5.38709 5.23506C4.95013 5.67226 4.6281 6.21089 4.44972 6.80289H5.8004C5.92131 6.54424 6.08579 6.30832 6.28664 6.10548C6.76791 5.67255 7.39687 5.44099 8.04377 5.45857C8.69067 5.47615 9.30616 5.74152 9.76323 6.19994C10.2203 6.65836 10.4841 7.27485 10.5002 7.92222C10.5163 8.56959 10.2835 9.19845 9.84973 9.67905C9.65602 9.86999 9.43586 10.032 9.19601 10.1602V11.5307Z" fill="#5C5C5C"/>
</svg>
