<svg width="16" height="16" viewBox="0 0 16 16" fill="none" xmlns="http://www.w3.org/2000/svg">
<path fill-rule="evenodd" clip-rule="evenodd" d="M1.5655 12.9808L2.75011 8.59229H7.7578C7.89242 8.59229 8.02704 8.45767 8.02704 8.32306V7.7846C8.02704 7.64998 7.89242 7.51537 7.7578 7.51537H2.75011L1.59242 3.20767C1.5655 3.15383 1.53857 3.07306 1.53857 2.99229C1.53857 2.80383 1.72704 2.61537 1.94242 2.64229C1.99627 2.64229 2.02319 2.66921 2.07704 2.66921L14.1924 7.64998C14.354 7.70383 14.4617 7.86537 14.4617 8.0269C14.4617 8.18844 14.354 8.32306 14.2193 8.3769L2.07704 13.4923C2.02319 13.5192 1.96934 13.5192 1.9155 13.5192C1.70011 13.4923 1.53857 13.3308 1.53857 13.1154C1.53857 13.0615 1.53857 13.0346 1.5655 12.9808Z" fill="#0250D9"/>
</svg>
