<svg width="24" height="24" viewBox="0 0 24 24" fill="none" xmlns="http://www.w3.org/2000/svg">
<path fill-rule="evenodd" clip-rule="evenodd" d="M21.6001 14.9538L19.8924 13.5231C19.9847 13.0154 20.0308 12.4615 20.0308 11.9538C20.0308 11.4462 19.9847 10.8923 19.8924 10.3846L21.6001 8.95385C22.1539 8.49231 22.3385 7.66154 21.9693 7.01538L21.2308 5.67692C20.9539 5.21538 20.4462 4.93846 19.8924 4.93846C19.7077 4.93846 19.5231 4.98461 19.3847 5.03077L17.3077 5.81538C16.477 5.07692 15.5539 4.56923 14.6308 4.24615L14.2616 2.07692C14.1231 1.33846 13.477 0.923077 12.7385 0.923077H11.2616C10.5231 0.923077 9.87698 1.33846 9.73851 2.07692L9.36928 4.2C8.3539 4.52308 7.47698 5.07692 6.64621 5.76923L4.61544 4.98461C4.43082 4.93846 4.29236 4.89231 4.10775 4.89231C3.5539 4.89231 3.04621 5.16923 2.76928 5.63077L2.03082 6.92308C1.66159 7.56923 1.80005 8.4 2.40005 8.86154L4.10775 10.2923C4.01544 10.8 3.96928 11.3538 3.96928 11.8615C3.96928 12.4154 4.01544 12.9231 4.10775 13.4308L2.40005 14.8615C1.84621 15.3231 1.66159 16.1538 2.03082 16.8L2.76928 18.1846C3.04621 18.6462 3.5539 18.9231 4.10775 18.9231C4.29236 18.9231 4.47698 18.8769 4.61544 18.8308L6.69236 18.0462C7.52313 18.7846 8.44621 19.2923 9.36928 19.6154L9.73851 21.8308C9.87698 22.5692 10.477 23.0769 11.2616 23.0769H12.7385C13.477 23.0769 14.1231 22.5231 14.2616 21.7846L14.6308 19.5692C15.6924 19.2 16.6154 18.6462 17.4462 17.8615L19.3847 18.6462C19.5693 18.6923 19.7539 18.7385 19.9385 18.7385C20.4924 18.7385 21.0001 18.4615 21.277 18L21.9693 16.8C22.3385 16.2462 22.1539 15.4154 21.6001 14.9538ZM12.0458 17.1239C9.27661 17.1239 7.01508 14.8623 7.01508 12.0469C7.01508 9.23155 9.23046 6.97001 12.0458 6.97001C14.8612 6.97001 17.0766 9.23155 17.0766 12.0469C17.0766 14.8623 14.8151 17.1239 12.0458 17.1239ZM13.3844 8.30729H11.2613C10.9383 8.30729 10.6613 8.4919 10.569 8.76882L9.27673 12.0919C9.18442 12.3227 9.36903 12.5996 9.64596 12.5996H11.8152L11.0306 15.3688C10.9383 15.6457 11.2613 15.7842 11.446 15.5996L14.7229 11.7688C14.9536 11.5381 14.769 11.1688 14.446 11.1688H12.8306L14.2613 8.90729C14.3998 8.67652 14.2152 8.35344 13.9383 8.35344H13.3844V8.30729Z" fill="#5C5C5C"/>
</svg>
