<svg width="13" height="13" viewBox="0 0 13 13" fill="none" xmlns="http://www.w3.org/2000/svg">
<path fill-rule="evenodd" clip-rule="evenodd" d="M6.84205 0.296514L8.08052 4.33498C8.13436 4.49651 8.2959 4.57728 8.45744 4.57728H12.4959C12.8997 4.57728 13.0613 5.11575 12.7382 5.35805L9.45359 7.78113C9.31898 7.88882 9.26513 8.07728 9.31898 8.23882L10.8805 12.385C10.9882 12.7619 10.5844 13.085 10.2613 12.8427L6.73436 10.2042C6.59975 10.0965 6.41129 10.0965 6.24975 10.2042L2.6959 12.8427C2.37282 13.085 1.94205 12.7619 2.07667 12.385L3.58436 8.23882C3.63821 8.07728 3.58436 7.88882 3.44975 7.78113L0.165132 5.35805C-0.157945 5.11575 0.0305164 4.57728 0.407439 4.57728H4.4459C4.63436 4.57728 4.76898 4.52344 4.82282 4.33498L6.08821 0.269591C6.1959 -0.107332 6.73436 -0.080409 6.84205 0.296514Z" fill="#5C5C5C"/>
</svg>
