<svg width="24" height="24" viewBox="0 0 24 24" fill="none" xmlns="http://www.w3.org/2000/svg">
<path fill-rule="evenodd" clip-rule="evenodd" d="M10.2508 16.7123C10.2358 16.7516 10.2189 16.7901 10.2 16.8277C9.97256 17.4715 9.95835 18.1714 10.1595 18.8239C10.3607 19.4764 10.7665 20.0468 11.3169 20.4508C12.0462 21.0231 12.1892 21.2631 12.1154 21.7985C12.0323 22.254 11.8598 22.6885 11.6077 23.0769C7.80158 22.9486 4.10455 21.7732 0.923096 19.68V17.9723C0.923096 17.5431 0.923096 17.1277 0.96925 16.7123H10.2508ZM23.0308 16.7123C23.0539 17.1277 23.0769 17.5431 23.0769 17.9723V19.6754C20.2676 21.5259 17.0507 22.6663 13.7031 22.9985C13.8179 22.7002 13.9014 22.3909 13.9523 22.0754C14.1969 20.3538 13.1077 19.5046 12.4569 18.9969C12.2181 18.8383 12.0381 18.6055 11.9446 18.3344C11.8512 18.0633 11.8496 17.769 11.94 17.4969C12.0469 17.2251 12.1847 16.9664 12.3508 16.7262H23.0308V16.7123ZM10.3846 9.04154L12.4154 12.0277L10.4954 14.8569H6.43386L10.3846 9.04154ZM12 0.923077C14.8447 2.12874 17.3337 4.04193 19.2305 6.48075C21.1272 8.91958 22.3687 11.803 22.8369 14.8569H20.1231L16.0754 8.90308C15.986 8.78367 15.87 8.68674 15.7366 8.61998C15.6032 8.55322 15.4561 8.51846 15.3069 8.51846C15.1578 8.51846 15.0107 8.55322 14.8773 8.61998C14.7439 8.68674 14.6279 8.78367 14.5385 8.90308L13.5369 10.3754L11.1508 6.86769C11.0608 6.74911 10.9446 6.65296 10.8113 6.58677C10.678 6.52057 10.5312 6.48613 10.3823 6.48613C10.2335 6.48613 10.0867 6.52057 9.95334 6.58677C9.82002 6.65296 9.70383 6.74911 9.61386 6.86769L4.19079 14.8569H1.1631C1.63131 11.803 2.87281 8.91958 4.76958 6.48075C6.66636 4.04193 9.15537 2.12874 12 0.923077ZM15.3092 11.0769L17.8754 14.8569H12.7431L15.3092 11.0769Z" fill="#5C5C5C"/>
</svg>
