<svg width="16" height="16" viewBox="0 0 16 16" fill="none" xmlns="http://www.w3.org/2000/svg">
<path d="M1.75 7C1.75 6.44772 2.19772 6 2.75 6C3.30228 6 3.75 6.44772 3.75 7V9C3.75 9.55228 3.30228 10 2.75 10C2.19772 10 1.75 9.55228 1.75 9V7Z" fill="#5C5C5C"/>
<path d="M5.25 5C5.25 4.44772 5.69772 4 6.25 4C6.80228 4 7.25 4.44772 7.25 5V11C7.25 11.5523 6.80228 12 6.25 12C5.69772 12 5.25 11.5523 5.25 11V5Z" fill="#5C5C5C"/>
<path d="M8.75 2C8.75 1.44772 9.19772 1 9.75 1C10.3023 1 10.75 1.44772 10.75 2V14C10.75 14.5523 10.3023 15 9.75 15C9.19772 15 8.75 14.5523 8.75 14V2Z" fill="#5C5C5C"/>
<path d="M12.25 7C12.25 6.44772 12.6977 6 13.25 6C13.8023 6 14.25 6.44772 14.25 7V9C14.25 9.55228 13.8023 10 13.25 10C12.6977 10 12.25 9.55228 12.25 9V7Z" fill="#5C5C5C"/>
</svg>
