<svg width="21" height="20" viewBox="0 0 21 20" fill="none" xmlns="http://www.w3.org/2000/svg">
<path d="M17.6894 4.70357C17.6894 4.70357 16.7573 2.77499 14.68 2.77499C13.6956 2.77499 12.9565 3.22013 12.4512 3.68851C11.8961 4.20301 11.056 4.46284 10.2992 4.46284C9.54469 4.46284 8.70645 4.19765 8.15518 3.68251C7.6563 3.21634 6.92517 2.77499 5.94498 2.77499C3.86775 2.77499 2.93565 4.70357 2.93565 4.70357C2.93565 4.70357 0.991574 9.06964 0.938311 12.9804C0.885049 16.8375 3.46828 17.775 4.69331 17.775C7.28423 17.775 8.81651 15.45 9.58413 13.7754C9.79509 13.3152 10.661 13.2994 10.8862 13.7528C11.7189 15.429 13.3463 17.775 15.9317 17.775C17.1301 17.775 19.74 16.8375 19.6867 12.9804C19.6334 9.06964 17.6894 4.70357 17.6894 4.70357Z" stroke="#747474" stroke-width="1.875"/>
<circle cx="15.377" cy="13.75" r="4" stroke="#747474" stroke-width="1.875"/>
<circle cx="5.37695" cy="13.75" r="4" stroke="#747474" stroke-width="1.875"/>
</svg>
