<svg width="24" height="24" viewBox="0 0 24 24" fill="none" xmlns="http://www.w3.org/2000/svg">
<path fill-rule="evenodd" clip-rule="evenodd" d="M14.3075 11.7228L20.3075 5.67668C20.5844 5.39976 20.5844 4.98438 20.3075 4.70745L19.3844 3.73822C19.1075 3.4613 18.6921 3.4613 18.4151 3.73822L12.369 9.78437C12.1844 9.96899 11.9075 9.96899 11.7228 9.78437L5.67668 3.69207C5.39976 3.41514 4.98437 3.41514 4.70745 3.69207L3.73822 4.6613C3.4613 4.93822 3.4613 5.35361 3.73822 5.63053L9.78437 11.6767C9.96899 11.8613 9.96899 12.1382 9.78437 12.3228L3.69207 18.4151C3.41514 18.6921 3.41514 19.1075 3.69207 19.3844L4.6613 20.3536C4.93822 20.6305 5.35361 20.6305 5.63053 20.3536L11.6767 14.3075C11.8613 14.1228 12.1382 14.1228 12.3228 14.3075L18.369 20.3536C18.6459 20.6305 19.0613 20.6305 19.3382 20.3536L20.3075 19.3844C20.5844 19.1075 20.5844 18.6921 20.3075 18.4151L14.3075 12.369C14.1228 12.1844 14.1228 11.9075 14.3075 11.7228V11.7228Z" fill="#747474"/>
</svg>
