<svg width="20" height="20" viewBox="0 0 20 20" fill="none" xmlns="http://www.w3.org/2000/svg">
<g clip-path="url(#clip0_1461_4252)">
<path fill-rule="evenodd" clip-rule="evenodd" d="M0.769531 17.5004C0.769531 18.3465 1.46184 19.0389 2.30799 19.0389H18.6157C18.9618 19.0389 19.2311 18.7696 19.2311 18.4235V17.3465C19.2311 17.0004 18.9618 16.7312 18.6157 16.7312H3.65415C3.34645 16.7312 3.07722 16.4619 3.07722 16.1542V1.5773C3.07722 1.23114 2.80799 0.961914 2.46184 0.961914H1.38492C1.03876 0.961914 0.769531 1.23114 0.769531 1.5773V17.5004ZM19.1156 5.42324C19.1156 4.76939 18.6156 4.26939 17.9618 4.26939C17.6156 4.26939 17.3464 4.42324 17.1156 4.61554L13.8079 7.92324L11.5387 5.76939L11.5002 5.73093L11.4233 5.654C11.3848 5.654 11.3848 5.61554 11.3464 5.61554C11.3079 5.57708 11.2694 5.57708 11.231 5.53862C11.1925 5.53862 11.1925 5.50016 11.1541 5.50016C11.1156 5.50016 11.0771 5.4617 11.0002 5.4617C10.9618 5.4617 10.9618 5.4617 10.9233 5.42324C10.8464 5.42324 10.7694 5.38477 10.6925 5.38477C10.6156 5.38477 10.5387 5.38477 10.4618 5.42324C10.4233 5.42324 10.4233 5.42324 10.3848 5.4617C10.3464 5.4617 10.2694 5.50016 10.231 5.50016C10.1925 5.50016 10.1925 5.53862 10.1541 5.53862C10.1156 5.57708 10.0771 5.57708 10.0387 5.61554C10.0002 5.61554 10.0002 5.654 9.96175 5.69247C9.92329 5.73093 9.88483 5.73093 9.84637 5.76939L5.46175 10.1925C5.23098 10.4233 5.07714 10.6925 5.07714 11.0386C5.07714 11.6925 5.57714 12.1925 6.23098 12.1925C6.50021 12.1925 6.76944 12.0771 6.96175 11.9233L10.731 8.19247L12.9233 10.3463C12.9618 10.3848 13.0002 10.3848 13.0387 10.4233L13.1156 10.5002C13.1541 10.5386 13.1925 10.5386 13.231 10.5771C13.2694 10.5771 13.2694 10.6156 13.3079 10.6156C13.3464 10.654 13.4233 10.654 13.4618 10.654C13.5002 10.654 13.5002 10.654 13.5387 10.6925C13.6156 10.6925 13.6925 10.7309 13.7694 10.7309C13.8464 10.7309 13.9233 10.7309 14.0002 10.6925H14.0771C14.1156 10.6925 14.1541 10.654 14.231 10.654C14.2694 10.654 14.2694 10.6156 14.3079 10.6156C14.3464 10.6156 14.3848 10.5771 14.4233 10.5386C14.4618 10.5386 14.4618 10.5002 14.5002 10.5002L14.5387 10.4617L14.5771 10.4233L14.6156 10.3848L18.7694 6.26939C18.9618 6.03862 19.1156 5.76939 19.1156 5.42324Z" fill="#747474"/>
</g>
<defs>
<clipPath id="clip0_1461_4252">
<rect width="20" height="20" fill="white"/>
</clipPath>
</defs>
</svg>
