<svg width="20" height="20" viewBox="0 0 20 20" fill="none" xmlns="http://www.w3.org/2000/svg">
<path d="M9.08397 20C8.26336 20 7.60496 19.4842 7.42366 18.7106L7.08969 17.2302L6.91794 17.1729L5.62977 17.9656C4.94275 18.3859 4.12214 18.2713 3.54962 17.6982L2.27099 16.4279C1.67939 15.8357 1.59351 15.0143 2.01336 14.3457L2.80534 13.0659L2.74809 12.9035L1.28817 12.5597C0.515267 12.3782 0 11.7096 0 10.9074V9.13085C0 8.31901 0.505725 7.66953 1.28817 7.47851L2.73855 7.11557L2.80534 6.9532L2.01336 5.67335C1.59351 5.00478 1.66985 4.18338 2.27099 3.58166L3.54008 2.31137C4.1126 1.74785 4.93321 1.63324 5.62023 2.05349L6.89885 2.83668L7.08969 2.76982L7.42366 1.2894C7.60496 0.515759 8.26336 0 9.08397 0H10.916C11.7366 0 12.395 0.515759 12.5763 1.2894L12.9198 2.76982L13.1011 2.83668L14.3798 2.05349C15.0668 1.62369 15.8874 1.74785 16.4599 2.31137L17.729 3.58166C18.3302 4.18338 18.4065 5.00478 17.9866 5.67335L17.1947 6.9532L17.2614 7.11557L18.7118 7.47851C19.4943 7.65998 20 8.31901 20 9.13085V10.9074C20 11.7096 19.4847 12.3782 18.7118 12.5597L17.2519 12.9035L17.1947 13.0659L17.9866 14.3457C18.4065 15.0143 18.3206 15.8357 17.729 16.4279L16.4504 17.6982C15.8779 18.2713 15.0573 18.3859 14.3702 17.9656L13.0916 17.1729L12.9198 17.2302L12.5763 18.7106C12.395 19.4842 11.7366 20 10.916 20H9.08397ZM9.4084 18.0516H10.5916C10.7443 18.0516 10.8111 17.9847 10.8302 17.851L11.3645 15.6543C12.0134 15.511 12.5477 15.2722 13.063 14.9475L14.9809 16.1223C15.0954 16.1987 15.2004 16.1987 15.3053 16.0936L16.126 15.2722C16.2309 15.1671 16.2214 15.0621 16.1546 14.957L14.9714 13.0277C15.2672 12.5406 15.5153 11.9484 15.6489 11.3563L17.8531 10.8309C17.9866 10.8023 18.0534 10.7354 18.0534 10.5826V9.44604C18.0534 9.28367 17.9866 9.22636 17.8531 9.19771L15.6489 8.6724C15.5153 8.05158 15.2576 7.44986 14.9809 6.98185L16.1546 5.06208C16.2309 4.94747 16.2405 4.84241 16.1355 4.73734L15.3053 3.9255C15.2004 3.82044 15.105 3.82044 14.9809 3.8873L13.063 5.06208C12.5668 4.75645 11.9847 4.49857 11.3645 4.36485L10.8302 2.149C10.8111 2.01528 10.7443 1.94842 10.5916 1.94842H9.4084C9.26527 1.94842 9.18893 2.01528 9.16985 2.149L8.64504 4.34575C8.02481 4.49857 7.36641 4.77555 6.92748 5.05253L5.00954 3.87775C4.8855 3.81089 4.79008 3.82044 4.68511 3.91595L3.85496 4.72779C3.75 4.83286 3.75954 4.93792 3.83588 5.05253L5.01908 6.98185C4.74237 7.45941 4.48473 8.05158 4.3416 8.6724L2.14695 9.19771C2.01336 9.22636 1.94656 9.28367 1.94656 9.44604V10.5826C1.94656 10.7354 2.01336 10.8023 2.14695 10.8309L4.35114 11.3467C4.47519 11.9484 4.73282 12.531 5.03817 13.0277L3.83588 14.9666C3.76908 15.0716 3.76908 15.1767 3.8645 15.2818L4.68511 16.1032C4.79008 16.2082 4.90458 16.2082 5.00954 16.1318L6.93702 14.9475C7.45229 15.2722 8.04389 15.5205 8.64504 15.6543L9.16985 17.851C9.18893 17.9847 9.26527 18.0516 9.4084 18.0516ZM10 13.4002C8.12023 13.4002 6.59351 11.8816 6.59351 10C6.59351 8.11843 8.12023 6.59981 10 6.59981C11.8798 6.59981 13.3969 8.11843 13.3969 10C13.3969 11.8816 11.8798 13.4002 10 13.4002ZM10 11.6428C10.9065 11.6428 11.6412 10.9074 11.6412 10C11.6412 9.08309 10.9065 8.34766 10 8.34766C9.08397 8.34766 8.34924 9.08309 8.34924 10C8.34924 10.9074 9.08397 11.6428 10 11.6428Z" fill="#747474"/>
</svg>
